<svg xmlns="http://www.w3.org/2000/svg" viewBox="0 0 128 128">
  <defs>
    <linearGradient id="bg" x1="16" y1="14" x2="112" y2="114"
      gradientUnits="userSpaceOnUse">
      <stop offset="0" stop-color="#0f766e" />
      <stop offset="1" stop-color="#1d4ed8" />
    </linearGradient>
    <linearGradient id="panel" x1="24" y1="24" x2="103" y2="102"
      gradientUnits="userSpaceOnUse">
      <stop offset="0" stop-color="#f8fafc" />
      <stop offset="1" stop-color="#dbeafe" />
    </linearGradient>
    <linearGradient id="folder" x1="34" y1="48" x2="86" y2="88"
      gradientUnits="userSpaceOnUse">
      <stop offset="0" stop-color="#fbbf24" />
      <stop offset="1" stop-color="#f59e0b" />
    </linearGradient>
    <linearGradient id="volume" x1="71" y1="64" x2="96" y2="92"
      gradientUnits="userSpaceOnUse">
      <stop offset="0" stop-color="#5eead4" />
      <stop offset="1" stop-color="#14b8a6" />
    </linearGradient>
  </defs>
  <rect x="8" y="8" width="112" height="112" rx="28"
    fill="url(#bg)" />
  <rect x="22" y="24" width="84" height="80" rx="16"
    fill="url(#panel)" />
  <path
    d="M22 40c0-8.8 7.2-16 16-16h52c8.8 0 16 7.2 16 16v8H22v-8Z"
    fill="#0f172a" opacity=".12" />
  <circle cx="36" cy="36" r="3.2" fill="#f97316" />
  <circle cx="47" cy="36" r="3.2" fill="#facc15" />
  <circle cx="58" cy="36" r="3.2" fill="#22c55e" />
  <path
    d="M34 54h18l6 7h26c4.4 0 8 3.6 8 8v14c0 6.1-4.9 11-11 11H39
    c-6.1 0-11-4.9-11-11V62c0-4.4 3.6-8 8-8Z"
    fill="url(#folder)" />
  <path
    d="M76 64c7.7 0 14 2.1 14 4.6v14.8c0 2.5-6.3 4.6-14 4.6s-14-2.1-14-4.6
    V68.6c0-2.5 6.3-4.6 14-4.6Z"
    fill="url(#volume)" />
  <ellipse cx="76" cy="68.6" rx="14" ry="4.6" fill="#99f6e4" />
  <path
    d="M62 76c2.2 1.5 7.3 2.6 14 2.6s11.8-1.1 14-2.6"
    fill="none" stroke="#0f766e" stroke-width="2.4"
    stroke-linecap="round" />
  <path
    d="M62 84c2.2 1.5 7.3 2.6 14 2.6s11.8-1.1 14-2.6"
    fill="none" stroke="#0f766e" stroke-width="2.4"
    stroke-linecap="round" />
  <path
    d="M42 70h13m-13 10h10"
    fill="none" stroke="#7c2d12" stroke-width="4.2"
    stroke-linecap="round" opacity=".5" />
  <path
    d="M97.5 92.5a15.5 15.5 0 0 1-19.1 2.2"
    fill="none" stroke="#eff6ff" stroke-width="4"
    stroke-linecap="round" opacity=".9" />
  <path
    d="m91 88 9 9"
    fill="none" stroke="#eff6ff" stroke-width="5"
    stroke-linecap="round" />
</svg>
